<svg xmlns="http://www.w3.org/2000/svg" xmlns:xlink="http://www.w3.org/1999/xlink" width="90" zoomAndPan="magnify" viewBox="0 0 67.5 67.499996" height="90" preserveAspectRatio="xMidYMid meet" version="1.0"><defs><clipPath id="db097c7d30"><path d="M 16 7 L 67.003906 7 L 67.003906 65 L 16 65 Z M 16 7 " clip-rule="nonzero"/></clipPath></defs><g clip-path="url(#db097c7d30)"><path fill="#5e17eb" d="M 61.472656 19.351562 L 61.472656 64.078125 L 67.003906 64.078125 L 67.003906 7.96875 L 61.472656 12.359375 L 40.984375 28.136719 L 39.355469 29.4375 L 36.429688 31.714844 L 34.316406 33.339844 L 33.664062 32.851562 L 16.589844 19.515625 L 16.589844 26.671875 L 29.597656 36.917969 L 33.664062 40.007812 L 34.316406 40.496094 L 38.867188 36.917969 L 39.355469 36.59375 L 40.984375 35.289062 L 45.535156 31.714844 Z M 61.472656 19.351562 " fill-opacity="1" fill-rule="evenodd"/></g><path fill="#5e17eb" d="M 8.292969 13.335938 L 8.292969 64.078125 L 13.984375 64.078125 L 13.984375 14.3125 L 33.664062 29.597656 L 33.664062 22.441406 L 13.984375 7.320312 L 8.292969 2.925781 Z M 8.292969 13.335938 " fill-opacity="1" fill-rule="evenodd"/><path fill="#ffffff" d="M 0 13.984375 L 0 64.078125 L 5.53125 64.078125 L 5.53125 11.222656 L 0 6.832031 Z M 0 13.984375 " fill-opacity="1" fill-rule="evenodd"/><path fill="#ffffff" d="M 33.664062 51.878906 L 53.34375 36.753906 L 53.34375 64.078125 L 58.871094 64.078125 L 58.871094 25.207031 L 53.34375 29.597656 L 33.664062 44.886719 Z M 33.664062 51.878906 " fill-opacity="1" fill-rule="evenodd"/></svg>